<mxfile host="65bd71144e">
    <diagram name="Page-1" id="9ZyNLu4KVZeICOAlVCgH">
        <mxGraphModel dx="1130" dy="1851" grid="1" gridSize="10" guides="1" tooltips="1" connect="1" arrows="1" fold="1" page="1" pageScale="1" pageWidth="850" pageHeight="1100" math="0" shadow="0">
            <root>
                <mxCell id="0"/>
                <mxCell id="1" parent="0"/>
                <mxCell id="m1c0zaDM8MKZKs5XDYi0-1" value="Cafetería Virtual" style="shape=umlFrame;whiteSpace=wrap;html=1;pointerEvents=0;" parent="1" vertex="1">
                    <mxGeometry x="70" y="-70" width="1260" height="720" as="geometry"/>
                </mxCell>
                <mxCell id="m1c0zaDM8MKZKs5XDYi0-3" value="API_GATEWAY" style="verticalAlign=top;align=left;spacingTop=8;spacingLeft=2;spacingRight=12;shape=cube;size=10;direction=south;fontStyle=4;html=1;whiteSpace=wrap;" parent="1" vertex="1">
                    <mxGeometry x="400" y="270" width="100" height="90" as="geometry"/>
                </mxCell>
                <mxCell id="m1c0zaDM8MKZKs5XDYi0-8" value="" style="group" parent="1" vertex="1" connectable="0">
                    <mxGeometry x="100" y="246" width="190" height="120" as="geometry"/>
                </mxCell>
                <mxCell id="m1c0zaDM8MKZKs5XDYi0-2" value="Cliente" style="verticalAlign=top;align=left;spacingTop=8;spacingLeft=2;spacingRight=12;shape=cube;size=10;direction=south;fontStyle=4;html=1;whiteSpace=wrap;" parent="m1c0zaDM8MKZKs5XDYi0-8" vertex="1">
                    <mxGeometry width="190" height="120" as="geometry"/>
                </mxCell>
                <mxCell id="m1c0zaDM8MKZKs5XDYi0-6" value="«front-end»&lt;br&gt;&lt;b&gt;mobile_app&lt;/b&gt;" style="html=1;dropTarget=0;whiteSpace=wrap;" parent="m1c0zaDM8MKZKs5XDYi0-8" vertex="1">
                    <mxGeometry x="30" y="40" width="120" height="60" as="geometry"/>
                </mxCell>
                <mxCell id="m1c0zaDM8MKZKs5XDYi0-7" value="" style="shape=module;jettyWidth=8;jettyHeight=4;" parent="m1c0zaDM8MKZKs5XDYi0-6" vertex="1">
                    <mxGeometry x="1" width="20" height="20" relative="1" as="geometry">
                        <mxPoint x="-27" y="7" as="offset"/>
                    </mxGeometry>
                </mxCell>
                <mxCell id="m1c0zaDM8MKZKs5XDYi0-9" value="" style="rounded=0;orthogonalLoop=1;jettySize=auto;html=1;endArrow=none;endFill=0;exitX=0.575;exitY=0.005;exitDx=0;exitDy=0;exitPerimeter=0;" parent="1" source="m1c0zaDM8MKZKs5XDYi0-2" target="m1c0zaDM8MKZKs5XDYi0-3" edge="1">
                    <mxGeometry relative="1" as="geometry">
                        <mxPoint x="300" y="270" as="sourcePoint"/>
                        <mxPoint x="400" y="280" as="targetPoint"/>
                    </mxGeometry>
                </mxCell>
                <mxCell id="m1c0zaDM8MKZKs5XDYi0-10" value="&lt;div&gt;HTTP&lt;/div&gt;" style="edgeLabel;html=1;align=center;verticalAlign=middle;resizable=0;points=[];" parent="m1c0zaDM8MKZKs5XDYi0-9" vertex="1" connectable="0">
                    <mxGeometry x="0.398" y="1" relative="1" as="geometry">
                        <mxPoint x="-16" y="-19" as="offset"/>
                    </mxGeometry>
                </mxCell>
                <mxCell id="m1c0zaDM8MKZKs5XDYi0-24" value="" style="endArrow=none;html=1;rounded=0;exitX=0;exitY=0;exitDx=40;exitDy=0;exitPerimeter=0;entryX=0;entryY=0;entryDx=140;entryDy=510;entryPerimeter=0;" parent="1" source="m1c0zaDM8MKZKs5XDYi0-3" target="6" edge="1">
                    <mxGeometry relative="1" as="geometry">
                        <mxPoint x="460" y="310" as="sourcePoint"/>
                        <mxPoint x="600" y="280" as="targetPoint"/>
                    </mxGeometry>
                </mxCell>
                <mxCell id="m1c0zaDM8MKZKs5XDYi0-25" value="&lt;div&gt;1&lt;/div&gt;" style="edgeLabel;resizable=0;html=1;align=left;verticalAlign=bottom;" parent="m1c0zaDM8MKZKs5XDYi0-24" connectable="0" vertex="1">
                    <mxGeometry x="-1" relative="1" as="geometry"/>
                </mxCell>
                <mxCell id="m1c0zaDM8MKZKs5XDYi0-26" value="&lt;div&gt;1..n&lt;/div&gt;" style="edgeLabel;resizable=0;html=1;align=right;verticalAlign=bottom;" parent="m1c0zaDM8MKZKs5XDYi0-24" connectable="0" vertex="1">
                    <mxGeometry x="1" relative="1" as="geometry"/>
                </mxCell>
                <mxCell id="m1c0zaDM8MKZKs5XDYi0-28" value="&lt;div&gt;HTTP&lt;/div&gt;" style="edgeLabel;html=1;align=center;verticalAlign=middle;resizable=0;points=[];" parent="m1c0zaDM8MKZKs5XDYi0-24" vertex="1" connectable="0">
                    <mxGeometry x="-0.2025" relative="1" as="geometry">
                        <mxPoint x="9" y="12" as="offset"/>
                    </mxGeometry>
                </mxCell>
                <mxCell id="m1c0zaDM8MKZKs5XDYi0-32" value="" style="group" parent="1" vertex="1" connectable="0">
                    <mxGeometry x="840" y="-10" width="190" height="120" as="geometry"/>
                </mxCell>
                <mxCell id="m1c0zaDM8MKZKs5XDYi0-33" value="Transbank Server" style="verticalAlign=top;align=left;spacingTop=8;spacingLeft=2;spacingRight=12;shape=cube;size=10;direction=south;fontStyle=4;html=1;whiteSpace=wrap;" parent="m1c0zaDM8MKZKs5XDYi0-32" vertex="1">
                    <mxGeometry width="190" height="120" as="geometry"/>
                </mxCell>
                <mxCell id="m1c0zaDM8MKZKs5XDYi0-34" value="&lt;div&gt;«api»&lt;/div&gt;&lt;div&gt;&lt;b&gt;webpay_service&lt;/b&gt;&lt;/div&gt;" style="html=1;dropTarget=0;whiteSpace=wrap;" parent="m1c0zaDM8MKZKs5XDYi0-32" vertex="1">
                    <mxGeometry x="30" y="40" width="120" height="60" as="geometry"/>
                </mxCell>
                <mxCell id="m1c0zaDM8MKZKs5XDYi0-35" value="" style="shape=module;jettyWidth=8;jettyHeight=4;" parent="m1c0zaDM8MKZKs5XDYi0-34" vertex="1">
                    <mxGeometry x="1" width="20" height="20" relative="1" as="geometry">
                        <mxPoint x="-27" y="7" as="offset"/>
                    </mxGeometry>
                </mxCell>
                <mxCell id="m1c0zaDM8MKZKs5XDYi0-43" value="" style="group" parent="1" vertex="1" connectable="0">
                    <mxGeometry x="785" y="160" width="10" height="10" as="geometry"/>
                </mxCell>
                <mxCell id="m1c0zaDM8MKZKs5XDYi0-41" value="" style="ellipse;whiteSpace=wrap;html=1;align=center;aspect=fixed;fillColor=none;strokeColor=none;resizable=0;perimeter=centerPerimeter;rotatable=0;allowArrows=0;points=[];outlineConnect=1;" parent="m1c0zaDM8MKZKs5XDYi0-43" vertex="1">
                    <mxGeometry width="10" height="10" as="geometry"/>
                </mxCell>
                <mxCell id="m1c0zaDM8MKZKs5XDYi0-39" value="" style="rounded=0;orthogonalLoop=1;jettySize=auto;html=1;endArrow=halfCircle;endFill=0;endSize=6;strokeWidth=1;sketch=0;exitX=0.5;exitY=1;exitDx=0;exitDy=0;" parent="1" source="m1c0zaDM8MKZKs5XDYi0-34" edge="1">
                    <mxGeometry relative="1" as="geometry">
                        <mxPoint x="165" y="5" as="sourcePoint"/>
                        <mxPoint x="930" y="165" as="targetPoint"/>
                    </mxGeometry>
                </mxCell>
                <mxCell id="m1c0zaDM8MKZKs5XDYi0-42" value="&lt;div&gt;REST API&lt;/div&gt;" style="edgeLabel;html=1;align=center;verticalAlign=middle;resizable=0;points=[];" parent="m1c0zaDM8MKZKs5XDYi0-39" vertex="1" connectable="0">
                    <mxGeometry x="0.68" y="-2" relative="1" as="geometry">
                        <mxPoint x="42" y="7" as="offset"/>
                    </mxGeometry>
                </mxCell>
                <mxCell id="6" value="Cloud Functions" style="verticalAlign=top;align=left;spacingTop=8;spacingLeft=2;spacingRight=12;shape=cube;size=10;direction=south;fontStyle=4;html=1;whiteSpace=wrap;" parent="1" vertex="1">
                    <mxGeometry x="590" y="170" width="510" height="270" as="geometry"/>
                </mxCell>
                <mxCell id="m1c0zaDM8MKZKs5XDYi0-57" value="&lt;div&gt;«auth»&lt;/div&gt;&lt;div&gt;&lt;b&gt;api-auth&lt;/b&gt;&lt;/div&gt;" style="html=1;dropTarget=0;whiteSpace=wrap;" parent="1" vertex="1">
                    <mxGeometry x="650" y="330" width="140" height="70" as="geometry"/>
                </mxCell>
                <mxCell id="m1c0zaDM8MKZKs5XDYi0-58" value="" style="shape=module;jettyWidth=8;jettyHeight=4;" parent="m1c0zaDM8MKZKs5XDYi0-57" vertex="1">
                    <mxGeometry x="1" width="20" height="20" relative="1" as="geometry">
                        <mxPoint x="-27" y="7" as="offset"/>
                    </mxGeometry>
                </mxCell>
                <mxCell id="m1c0zaDM8MKZKs5XDYi0-67" value="" style="group" parent="1" vertex="1" connectable="0">
                    <mxGeometry x="770" y="500" width="318" height="120" as="geometry"/>
                </mxCell>
                <mxCell id="m1c0zaDM8MKZKs5XDYi0-68" value="Firebase Server" style="verticalAlign=top;align=left;spacingTop=8;spacingLeft=2;spacingRight=12;shape=cube;size=10;direction=south;fontStyle=4;html=1;whiteSpace=wrap;" parent="m1c0zaDM8MKZKs5XDYi0-67" vertex="1">
                    <mxGeometry x="-170" width="488" height="120" as="geometry"/>
                </mxCell>
                <mxCell id="m1c0zaDM8MKZKs5XDYi0-69" value="&lt;div&gt;«database»&lt;/div&gt;&lt;div&gt;&lt;b&gt;firebase_firestore&lt;/b&gt;&lt;br&gt;&lt;/div&gt;" style="html=1;dropTarget=0;whiteSpace=wrap;" parent="m1c0zaDM8MKZKs5XDYi0-67" vertex="1">
                    <mxGeometry x="59.21052631578948" y="40" width="200.84210526315792" height="60" as="geometry"/>
                </mxCell>
                <mxCell id="m1c0zaDM8MKZKs5XDYi0-70" value="" style="shape=module;jettyWidth=8;jettyHeight=4;" parent="m1c0zaDM8MKZKs5XDYi0-69" vertex="1">
                    <mxGeometry x="1" width="20" height="20" relative="1" as="geometry">
                        <mxPoint x="-27" y="7" as="offset"/>
                    </mxGeometry>
                </mxCell>
                <mxCell id="m1c0zaDM8MKZKs5XDYi0-71" value="&lt;div&gt;«auth»&lt;/div&gt;&lt;div&gt;&lt;b&gt;firebase_authentication&lt;/b&gt;&lt;br&gt;&lt;/div&gt;" style="html=1;dropTarget=0;whiteSpace=wrap;" parent="m1c0zaDM8MKZKs5XDYi0-67" vertex="1">
                    <mxGeometry x="-149.99947368421056" y="40" width="200.84210526315792" height="60" as="geometry"/>
                </mxCell>
                <mxCell id="m1c0zaDM8MKZKs5XDYi0-72" value="" style="shape=module;jettyWidth=8;jettyHeight=4;" parent="m1c0zaDM8MKZKs5XDYi0-71" vertex="1">
                    <mxGeometry x="1" width="20" height="20" relative="1" as="geometry">
                        <mxPoint x="-27" y="7" as="offset"/>
                    </mxGeometry>
                </mxCell>
                <mxCell id="m1c0zaDM8MKZKs5XDYi0-64" value="" style="rounded=0;orthogonalLoop=1;jettySize=auto;html=1;endArrow=halfCircle;endFill=0;endSize=6;strokeWidth=1;sketch=0;exitX=0.5;exitY=0;exitDx=0;exitDy=0;" parent="1" source="m1c0zaDM8MKZKs5XDYi0-69" edge="1">
                    <mxGeometry relative="1" as="geometry">
                        <mxPoint x="929.5" y="440" as="sourcePoint"/>
                        <mxPoint x="930" y="460" as="targetPoint"/>
                    </mxGeometry>
                </mxCell>
                <mxCell id="m1c0zaDM8MKZKs5XDYi0-65" value="&lt;div&gt;REST API&lt;/div&gt;" style="edgeLabel;html=1;align=center;verticalAlign=middle;resizable=0;points=[];" parent="m1c0zaDM8MKZKs5XDYi0-64" vertex="1" connectable="0">
                    <mxGeometry x="0.68" y="-2" relative="1" as="geometry">
                        <mxPoint x="42" y="-13" as="offset"/>
                    </mxGeometry>
                </mxCell>
                <mxCell id="m1c0zaDM8MKZKs5XDYi0-66" value="" style="rounded=0;orthogonalLoop=1;jettySize=auto;html=1;endArrow=oval;endFill=0;sketch=0;sourcePerimeterSpacing=0;targetPerimeterSpacing=0;endSize=10;exitX=0.5;exitY=1;exitDx=0;exitDy=0;" parent="1" source="17" edge="1">
                    <mxGeometry relative="1" as="geometry">
                        <mxPoint x="2070" y="830" as="sourcePoint"/>
                        <mxPoint x="930" y="460" as="targetPoint"/>
                    </mxGeometry>
                </mxCell>
                <mxCell id="m1c0zaDM8MKZKs5XDYi0-49" value="" style="rounded=0;orthogonalLoop=1;jettySize=auto;html=1;endArrow=halfCircle;endFill=0;endSize=6;strokeWidth=1;sketch=0;exitX=0.5;exitY=0;exitDx=0;exitDy=0;" parent="1" source="m1c0zaDM8MKZKs5XDYi0-71" edge="1">
                    <mxGeometry relative="1" as="geometry">
                        <mxPoint x="720" y="410" as="sourcePoint"/>
                        <mxPoint x="720" y="470" as="targetPoint"/>
                    </mxGeometry>
                </mxCell>
                <mxCell id="m1c0zaDM8MKZKs5XDYi0-50" value="&lt;div&gt;REST API&lt;/div&gt;" style="edgeLabel;html=1;align=center;verticalAlign=middle;resizable=0;points=[];" parent="m1c0zaDM8MKZKs5XDYi0-49" vertex="1" connectable="0">
                    <mxGeometry x="0.68" y="-2" relative="1" as="geometry">
                        <mxPoint x="38" y="-11" as="offset"/>
                    </mxGeometry>
                </mxCell>
                <mxCell id="m1c0zaDM8MKZKs5XDYi0-51" value="" style="rounded=0;orthogonalLoop=1;jettySize=auto;html=1;endArrow=oval;endFill=0;sketch=0;sourcePerimeterSpacing=0;targetPerimeterSpacing=0;endSize=10;" parent="1" source="m1c0zaDM8MKZKs5XDYi0-57" edge="1">
                    <mxGeometry relative="1" as="geometry">
                        <mxPoint x="720" y="550" as="sourcePoint"/>
                        <mxPoint x="720" y="470" as="targetPoint"/>
                    </mxGeometry>
                </mxCell>
                <mxCell id="m1c0zaDM8MKZKs5XDYi0-29" value="&lt;div&gt;«ventas»&lt;/div&gt;&lt;div&gt;&lt;b&gt;api-ventas&lt;/b&gt;&lt;/div&gt;" style="html=1;dropTarget=0;whiteSpace=wrap;" parent="1" vertex="1">
                    <mxGeometry x="859" y="200" width="140" height="70" as="geometry"/>
                </mxCell>
                <mxCell id="m1c0zaDM8MKZKs5XDYi0-30" value="" style="shape=module;jettyWidth=8;jettyHeight=4;" parent="m1c0zaDM8MKZKs5XDYi0-29" vertex="1">
                    <mxGeometry x="1" width="20" height="20" relative="1" as="geometry">
                        <mxPoint x="-27" y="7" as="offset"/>
                    </mxGeometry>
                </mxCell>
                <mxCell id="m1c0zaDM8MKZKs5XDYi0-40" value="" style="rounded=0;orthogonalLoop=1;jettySize=auto;html=1;endArrow=oval;endFill=0;sketch=0;sourcePerimeterSpacing=0;targetPerimeterSpacing=0;endSize=10;exitX=0.5;exitY=0;exitDx=0;exitDy=0;" parent="1" source="m1c0zaDM8MKZKs5XDYi0-29" edge="1">
                    <mxGeometry relative="1" as="geometry">
                        <mxPoint x="125" y="5" as="sourcePoint"/>
                        <mxPoint x="930" y="165" as="targetPoint"/>
                    </mxGeometry>
                </mxCell>
                <mxCell id="11" value="MySQL Database Server" style="verticalAlign=top;align=left;spacingTop=8;spacingLeft=2;spacingRight=12;shape=cube;size=10;direction=south;fontStyle=4;html=1;whiteSpace=wrap;" parent="1" vertex="1">
                    <mxGeometry x="1130" y="160" width="180" height="120" as="geometry"/>
                </mxCell>
                <mxCell id="12" value="&lt;div&gt;«ventas»&lt;/div&gt;&lt;div&gt;&lt;b&gt;mysql-database&lt;/b&gt;&lt;/div&gt;" style="html=1;dropTarget=0;whiteSpace=wrap;" parent="1" vertex="1">
                    <mxGeometry x="1150" y="200" width="140" height="70" as="geometry"/>
                </mxCell>
                <mxCell id="13" value="" style="shape=module;jettyWidth=8;jettyHeight=4;" parent="12" vertex="1">
                    <mxGeometry x="1" width="20" height="20" relative="1" as="geometry">
                        <mxPoint x="-27" y="7" as="offset"/>
                    </mxGeometry>
                </mxCell>
                <mxCell id="14" style="edgeStyle=none;html=1;entryX=0;entryY=0.5;entryDx=0;entryDy=0;endArrow=none;endFill=0;exitX=1;exitY=0.5;exitDx=0;exitDy=0;" parent="1" source="m1c0zaDM8MKZKs5XDYi0-29" target="12" edge="1">
                    <mxGeometry relative="1" as="geometry"/>
                </mxCell>
                <mxCell id="19" value="TCP/IP" style="edgeLabel;html=1;align=center;verticalAlign=middle;resizable=0;points=[];" parent="14" vertex="1" connectable="0">
                    <mxGeometry x="0.1258" relative="1" as="geometry">
                        <mxPoint x="-14" y="-15" as="offset"/>
                    </mxGeometry>
                </mxCell>
                <mxCell id="15" value="&lt;div&gt;«facturacion»&lt;/div&gt;&lt;div&gt;&lt;b&gt;api-facturacion&lt;/b&gt;&lt;/div&gt;" style="html=1;dropTarget=0;whiteSpace=wrap;" parent="1" vertex="1">
                    <mxGeometry x="640" y="230" width="140" height="70" as="geometry"/>
                </mxCell>
                <mxCell id="16" value="" style="shape=module;jettyWidth=8;jettyHeight=4;" parent="15" vertex="1">
                    <mxGeometry x="1" width="20" height="20" relative="1" as="geometry">
                        <mxPoint x="-27" y="7" as="offset"/>
                    </mxGeometry>
                </mxCell>
                <mxCell id="17" value="&lt;div&gt;«productos»&lt;/div&gt;&lt;div&gt;&lt;b&gt;api-productos&lt;/b&gt;&lt;/div&gt;" style="html=1;dropTarget=0;whiteSpace=wrap;" parent="1" vertex="1">
                    <mxGeometry x="860" y="340" width="140" height="70" as="geometry"/>
                </mxCell>
                <mxCell id="18" value="" style="shape=module;jettyWidth=8;jettyHeight=4;" parent="17" vertex="1">
                    <mxGeometry x="1" width="20" height="20" relative="1" as="geometry">
                        <mxPoint x="-27" y="7" as="offset"/>
                    </mxGeometry>
                </mxCell>
            </root>
        </mxGraphModel>
    </diagram>
</mxfile>